<svg fill="#00c619" xmlns="http://www.w3.org/2000/svg" viewBox="0 0 98 72" width="98px" height="72px" class="w-[54px] h-[40px] fill-current" data-testid="logo"><path d="M60.551 72c-8.803 0-17.07-3.53-23.307-9.926-1.7-1.748-1.7-4.598 0-6.363a4.307 4.307 0 016.189 0C48 60.407 54.078 62.997 60.55 62.997c6.472 0 12.551-2.59 17.118-7.286a4.307 4.307 0 016.19 0c1.7 1.749 1.7 4.599 0 6.363C77.621 68.486 69.353 72 60.55 72zM79.118 12.03c-10.314 0-18.472 8.16-18.472 18.732v11.22c0 2.704 2.142 4.89 4.772 4.89 2.63 0 4.771-2.186 4.771-4.89v-11.56c0-5.521 4.237-9.31 8.93-9.31 4.692 0 9.338 3.789 9.338 9.31v11.56c0 2.704 2.142 4.89 4.772 4.89 2.63 0 4.771-2.186 4.771-4.89v-11.22c-.015-10.573-8.582-18.733-18.882-18.733zM0 31.394c0 8.775 6.142 14.863 14.252 15.43.44.032 1.716.08 2.504.048 2.44 0 4.425-2.04 4.425-4.55s-1.984-4.55-4.425-4.55h-1.291c-3.402 0-5.827-2.784-5.937-6.168V21h7.322c2.394 0 4.331-1.991 4.331-4.452s-1.937-4.453-4.33-4.453H9.527V4.89C9.528 2.186 7.402 0 4.772 0 2.142 0 0 2.186 0 4.89v26.503zM40.33 12.03c-9.542 0-17.29 7.965-17.29 17.777 0 9.811 7.748 17.777 17.29 17.777 9.544 0 17.292-7.966 17.292-17.777 0-9.812-7.732-17.778-17.291-17.778zm0 26.406c-4.708 0-8.519-3.853-8.519-8.63 0-4.776 3.811-8.629 8.52-8.629s8.52 3.853 8.52 8.63c0 4.776-3.811 8.63-8.52 8.63z"></path></svg>